<svg xmlns="http://www.w3.org/2000/svg" width="349.383" height="94.859" viewBox="0 0 349.383 94.859"><g transform="translate(0 17.569)"><path d="M127.277,305.323Z" transform="translate(-95.733 -228.033)" fill="#e60019"/><path d="M166.416,246.641H103.327a129.809,129.809,0,0,0,5.426,35.131h26.118V288.8H111.11c.871,2.339,1.836,4.69,2.908,7.027h20.854v7.028H117.6c1.347,2.387,2.821,4.739,4.428,7.024h12.848v7.028h-7.277a69.56,69.56,0,0,0,7.277,7.025C163.037,300.482,166.416,258.8,166.416,246.641Z" transform="translate(-103.327 -246.641)" fill="#e72031"/><path d="M130.37,294.653H117.522a75.4,75.4,0,0,0,5.571,7.028h7.277Z" transform="translate(-98.826 -231.417)" fill="#fff"/><path d="M132.3,283.984H111.444q1.622,3.544,3.577,7.028H132.3Z" transform="translate(-100.753 -234.8)" fill="#fff"/><path d="M133.565,273.314H107.447c.7,2.318,1.478,4.666,2.356,7.027h23.762Z" transform="translate(-102.021 -238.183)" fill="#fff"/></g><path d="M129.755,253.334v7.087h-7.024v-7.087h-3.51v10.128c0,2.992-.952,4.952-3.635,4.952s-3.636-1.96-3.636-4.952V253.334h-3.511v11.21c0,4.7,2.659,6.637,7.148,6.637,4.365,0,7-1.831,7.14-6.254h.005v-1.74h7.024v7.692h3.51V253.334Z" transform="translate(-101.706 -226.95)" fill="#fff"/><g transform="translate(49.053 3.505)"><path d="M147.582,241.231c0,2.912-1.57,5.272-3.5,5.272s-3.507-2.36-3.507-5.272,1.573-5.268,3.507-5.268,3.5,2.358,3.5,5.268" transform="translate(-140.57 -235.963)" fill="#e72031"/></g><path d="M134.147,300.052a52.038,52.038,0,0,0,12.286-34.117,54.781,54.781,0,0,0-2.039-14.884c-1.879-6.659-4.473-12.692-8.5-17.749h-4.2c4.03,5.058,6.622,11.09,8.5,17.749a54.73,54.73,0,0,1,2.039,14.884,52.044,52.044,0,0,1-12.285,34.117Z" transform="translate(-94.888 -233.302)" fill="#1a1818"/><g transform="translate(70.129 26.605)"><path d="M156.572,254.692h4.213v12.137c0,3.584,1.143,5.933,4.364,5.933s4.364-2.35,4.364-5.933V254.692h4.215v13.432c0,5.632-3.191,7.951-8.578,7.951s-8.577-2.319-8.577-7.951Z" transform="translate(-156.572 -253.125)" fill="#1a1818"/><path d="M172.91,258.963h3.821v2.109h.061a5.79,5.79,0,0,1,5.087-2.47c3.672,0,5.267,2.589,5.267,6.084v9.787h-4.033v-8.282c0-1.9-.03-4.457-2.618-4.457-2.92,0-3.551,3.162-3.551,5.15v7.589H172.91Z" transform="translate(-151.391 -251.885)" fill="#1a1818"/><path d="M186.939,253.8h4.033v3.855h-4.033Zm0,6.686h4.033V276h-4.033Z" transform="translate(-146.943 -253.407)" fill="#1a1818"/><path d="M191.921,258.876h4.333l3.853,11.294h.061l3.731-11.294h4.033l-5.719,15.51h-4.544Z" transform="translate(-145.363 -251.798)" fill="#1a1818"/><path d="M218.6,273.6a10.651,10.651,0,0,1-5.328,1.235c-5.116,0-8.095-2.952-8.095-8.042,0-4.486,2.377-8.191,7.193-8.191,5.748,0,7.373,3.945,7.373,9.366H209.026a4.051,4.051,0,0,0,4.423,3.916,10.456,10.456,0,0,0,5.147-1.566Zm-2.709-8.4c-.12-1.957-1.023-3.643-3.281-3.643s-3.4,1.566-3.58,3.643Z" transform="translate(-141.161 -251.885)" fill="#1a1818"/><path d="M218.7,258.963h3.581v3.525h.061c.18-1.446,1.835-3.885,4.242-3.885a4.418,4.418,0,0,1,1.234.12v4.066a4.105,4.105,0,0,0-1.806-.331c-3.28,0-3.28,4.1-3.28,6.325v5.691H218.7Z" transform="translate(-136.871 -251.885)" fill="#1a1818"/><path d="M236.969,262.216a9.894,9.894,0,0,0-3.613-.663c-1.083,0-2.377.391-2.377,1.716,0,2.47,7.014.9,7.014,6.505,0,3.614-3.22,5.06-6.5,5.06a18.056,18.056,0,0,1-4.574-.662l.24-3.314a8.845,8.845,0,0,0,3.974,1.025c1.022,0,2.647-.391,2.647-1.9,0-3.041-7.011-.963-7.011-6.566,0-3.343,2.919-4.818,6.078-4.818a18.6,18.6,0,0,1,4.394.572Z" transform="translate(-134.314 -251.885)" fill="#1a1818"/><path d="M237.734,253.8h4.033v3.855h-4.033Zm0,6.686h4.033V276h-4.033Z" transform="translate(-130.836 -253.407)" fill="#1a1818"/><path d="M245.74,262.886h-2.979v-2.952h2.979v-3.1l4.033-1.295v4.4h3.582v2.952h-3.582v7.228c0,1.325.361,2.56,1.9,2.56a3.613,3.613,0,0,0,1.836-.421l.12,3.191a10.6,10.6,0,0,1-2.979.362c-3.16,0-4.906-1.958-4.906-5.03Z" transform="translate(-129.242 -252.856)" fill="#1a1818"/><path d="M259.767,270.2h.061l3.731-11.324h4.094l-5.808,15.39c-1.295,3.434-2.227,6.807-6.441,6.807a10.3,10.3,0,0,1-2.859-.422l.271-2.982a5.937,5.937,0,0,0,2.076.271,2.524,2.524,0,0,0,2.618-2.771l-5.928-16.294h4.454Z" transform="translate(-126.445 -251.798)" fill="#1a1818"/><path d="M272.238,254.692h4.212v8.493h8.427v-8.493h4.215v21.021h-4.215V266.5H276.45v9.216h-4.212Z" transform="translate(-119.895 -253.125)" fill="#1a1818"/><path d="M295.8,258.6c4.606,0,8.126,3.1,8.126,8.221,0,4.458-2.979,8.012-8.126,8.012a7.654,7.654,0,0,1-8.095-8.012C287.707,261.7,291.228,258.6,295.8,258.6Zm0,13.1c3.1,0,3.913-2.771,3.913-5.361,0-2.38-1.264-4.608-3.913-4.608-2.617,0-3.881,2.289-3.881,4.608C291.92,268.9,292.733,271.7,295.8,271.7Z" transform="translate(-114.99 -251.885)" fill="#1a1818"/><path d="M311.87,262.216a9.892,9.892,0,0,0-3.611-.663c-1.083,0-2.377.391-2.377,1.716,0,2.47,7.012.9,7.012,6.505,0,3.614-3.22,5.06-6.5,5.06a18.073,18.073,0,0,1-4.574-.662l.241-3.314a8.839,8.839,0,0,0,3.972,1.025c1.023,0,2.649-.391,2.649-1.9,0-3.041-7.012-.963-7.012-6.566,0-3.343,2.919-4.818,6.08-4.818a18.622,18.622,0,0,1,4.394.572Z" transform="translate(-110.563 -251.885)" fill="#1a1818"/><path d="M312.567,258.963h3.853v2.2h.061a5.252,5.252,0,0,1,4.814-2.559c4.756,0,6.5,3.795,6.5,8.071,0,4.246-1.745,8.162-6.591,8.162a5.3,5.3,0,0,1-4.545-2.139H316.6v8.1h-4.033Zm4.063,7.71c0,2.2.872,5.03,3.551,5.03,2.649,0,3.4-2.891,3.4-5.03,0-2.078-.722-4.939-3.34-4.939C317.654,261.734,316.63,264.505,316.63,266.673Z" transform="translate(-107.107 -251.885)" fill="#1a1818"/><path d="M326.6,253.8h4.033v3.855H326.6Zm0,6.686h4.033V276H326.6Z" transform="translate(-102.658 -253.407)" fill="#1a1818"/><path d="M334.6,262.886h-2.981v-2.952H334.6v-3.1l4.033-1.295v4.4h3.581v2.952h-3.581v7.228c0,1.325.361,2.56,1.9,2.56a3.613,3.613,0,0,0,1.836-.421l.121,3.191a10.616,10.616,0,0,1-2.981.362c-3.16,0-4.9-1.958-4.9-5.03Z" transform="translate(-101.064 -252.856)" fill="#1a1818"/><path d="M342.7,259.777a13.867,13.867,0,0,1,5.388-1.175c4.724,0,6.68,1.957,6.68,6.535v1.987c0,1.566.03,2.741.061,3.885.03,1.175.091,2.259.18,3.463h-3.551a19.007,19.007,0,0,1-.18-2.318h-.061a5.535,5.535,0,0,1-4.785,2.68c-2.738,0-5.417-1.657-5.417-4.608a4.557,4.557,0,0,1,2.649-4.427,12.261,12.261,0,0,1,5.206-.9H351.1c0-2.5-1.114-3.343-3.492-3.343a8.11,8.11,0,0,0-4.785,1.686Zm4.726,12.107a3.424,3.424,0,0,0,2.829-1.386,5.141,5.141,0,0,0,.843-3.193h-1.746c-1.8,0-4.483.3-4.483,2.68C344.867,271.312,345.98,271.884,347.425,271.884Z" transform="translate(-98.086 -251.885)" fill="#1a1818"/><path d="M354.542,253.5h4.033V276.09h-4.033Z" transform="translate(-93.797 -253.502)" fill="#1a1818"/><path d="M370.274,262.216a9.891,9.891,0,0,0-3.611-.663c-1.084,0-2.379.391-2.379,1.716,0,2.47,7.014.9,7.014,6.505,0,3.614-3.22,5.06-6.5,5.06a18.073,18.073,0,0,1-4.574-.662l.241-3.314a8.835,8.835,0,0,0,3.972,1.025c1.023,0,2.647-.391,2.647-1.9,0-3.041-7.011-.963-7.011-6.566,0-3.343,2.919-4.818,6.078-4.818a18.6,18.6,0,0,1,4.394.572Z" transform="translate(-92.043 -251.885)" fill="#1a1818"/></g></svg>